<?xml version="1.0" encoding="UTF-8"?>
<!DOCTYPE svg PUBLIC "-//W3C//DTD SVG 1.1//EN" "http://www.w3.org/Graphics/SVG/1.1/DTD/svg11.dtd">
<!-- Creator: CorelDRAW 2020 (64 Bit) -->
<svg xmlns="http://www.w3.org/2000/svg" xml:space="preserve" width="100mm" height="100mm" version="1.1" style="shape-rendering:geometricPrecision; text-rendering:geometricPrecision; image-rendering:optimizeQuality; fill-rule:evenodd; clip-rule:evenodd"
viewBox="0 0 10000 10000"
 xmlns:xlink="http://www.w3.org/1999/xlink"
 xmlns:xodm="http://www.corel.com/coreldraw/odm/2003">
 <defs>
  <style type="text/css">
   <![CDATA[
    .fil0 {fill:#030303}
   ]]>
  </style>
 </defs>
 <g id="Camada_x0020_1">
  <metadata id="CorelCorpID_0Corel-Layer"/>
  <g id="_1992175792400">
   <path class="fil0" d="M4809.74 10003.8l683.31 0c116.41,-40.33 644.16,-78.4 831.16,-117.59 994.02,-208.31 1858.03,-686.78 2561.99,-1351.79 173.22,-163.63 290.5,-311.86 460.39,-516.54 835.12,-1006.14 703.35,-1554.7 166.32,-1303.73 -115.98,54.21 -199.33,104.87 -332.41,160.44 -3034.86,1267.19 -6091.59,-814.3 -6381.19,-3713.81 -229.31,-2295.78 965.69,-2645.6 448.46,-3156.98l-187.15 0c-129.24,98.96 -241.17,124.93 -373.21,200.38l-960.09 685.02 -532.74 577.57c-181.04,222.08 -311.48,396.12 -458.78,649.63 -563.43,969.76 -884.41,2367.2 -618.39,3678.13 211.52,1042.38 837.22,2205.63 1608.59,2840.21 391.13,321.77 783.42,651.96 1328.35,889.59 907.34,395.68 1509.61,373.58 1755.39,479.47z"/>
   <path class="fil0" d="M6216.53 4803.8c825.19,29.24 1132.1,544.42 1312.52,1262.88 121.41,-724.2 502.83,-1237.49 1280.17,-1262.88l-212.09 -69.68c-73.13,-17.07 -169.27,-36.12 -242.91,-63.04 -648.5,-237.16 -754.41,-905.37 -869.44,-1049.37 -82.35,457.78 -369.85,877.07 -782.01,1039.56l-486.24 142.53z"/>
   <path class="fil0" d="M3925.53 1885.37c268.13,107.75 936.54,142.66 1022.23,1037.37 152.07,-381.76 26.36,-385.55 338.73,-698.66 327.89,-328.66 389.34,-177.86 707.64,-347.2 -339.7,-6.86 -549.61,-146.06 -714.03,-309.53 -298.77,-296.99 -183.56,-328.78 -329.4,-701.24 -100.93,619.09 -369.42,956.98 -1025.17,1019.26z"/>
   <path class="fil0" d="M7813.16 1603.8c164.08,108.88 175.35,68.21 323.36,218.77 43.31,44.07 74.61,77.28 117.53,144.68l117.83 197.63c66.17,-339.31 251.32,-402.6 497.48,-561.08 -10.03,-7.28 -25.89,-29.44 -31.12,-20.32 -5.17,8.99 -23.67,-15.55 -30.79,-19.94 -221.42,-136.53 -356.76,-189.46 -432.78,-522.39 -8.99,11.17 -19.71,14.67 -23.94,35.68l-98.83 161.1c-160.27,247.7 -289.84,258.86 -438.74,365.87z"/>
  </g>
 </g>
</svg>
