<?xml version="1.0" encoding="UTF-8"?>
<!DOCTYPE svg PUBLIC "-//W3C//DTD SVG 1.1//EN" "http://www.w3.org/Graphics/SVG/1.1/DTD/svg11.dtd">
<!-- Creator: CorelDRAW 2020 (64 Bit) -->
<svg xmlns="http://www.w3.org/2000/svg" xml:space="preserve" width="100mm" height="100mm" version="1.1" style="shape-rendering:geometricPrecision; text-rendering:geometricPrecision; image-rendering:optimizeQuality; fill-rule:evenodd; clip-rule:evenodd"
viewBox="0 0 10000 10000"
 xmlns:xlink="http://www.w3.org/1999/xlink"
 xmlns:xodm="http://www.corel.com/coreldraw/odm/2003">
 <defs>
  <style type="text/css">
   <![CDATA[
    .fil0 {fill:#FFFFFF}
   ]]>
  </style>
 </defs>
 <g id="Camada_x0020_1">
  <metadata id="CorelCorpID_0Corel-Layer"/>
  <g id="_1957631116736">
   <path class="fil0" d="M2843.14 4952.78c0,636.04 159.21,1039.02 521.84,1488.37l199.95 208.21c93.94,94.41 273.91,215.12 390.89,282.58 29.21,16.84 55.55,27.28 87.93,44.72 548.75,295.63 1317.23,322.22 1887.81,54.33 30.64,-14.39 62.69,-25.88 91,-41.65 235.96,-131.5 349.57,-193.11 557.82,-401.36 399.84,-399.83 660.72,-918.5 660.72,-1512.75 0,-549.55 -117.41,-903.31 -389.78,-1314.3 -355.82,-536.93 -1053.82,-940.8 -1702.06,-940.8 -500.7,0 -625.73,30.32 -1056.92,208.39 -89.85,37.1 -172.21,94.73 -253.58,144.37 -35.73,21.79 -47.28,31.47 -79.28,53.37 -105.75,72.37 -196.76,154.93 -286.24,244.38 -87.2,87.17 -164.62,180.36 -236.31,284.09 -229.32,331.83 -393.79,762.48 -393.79,1198.05z"/>
   <path class="fil0" d="M4710.49 8677.27l0 867.34c0,130.61 18.46,191.71 76.93,270.01 56.3,75.42 147.15,113.79 239.15,117.75l31.76 0c91.92,-3.94 181.15,-42.07 234.19,-111.84 59.66,-78.47 81.23,-138.53 81.23,-275.92l0 -867.34c0,-122.45 -20.32,-193.95 -71.08,-265.65 -135.37,-191.2 -592.18,-202.01 -592.18,265.65z"/>
   <path class="fil0" d="M1394.16 8279.31c0,195.68 141.05,336.73 336.73,336.73 171.04,0 220.89,-110.84 316.33,-183.67 67.22,-51.3 450.13,-443.16 516.1,-494.1 131.43,-101.48 198.19,-191.01 198.19,-363.04 0,-173.21 -154.84,-311.15 -348.85,-297.94 -132.57,9.02 -211.59,87.63 -311.87,188.24l-432.64 414.3c-54.43,43.42 -116.87,115.32 -169.49,167.25 -55.86,55.13 -104.5,125.62 -104.5,232.23z"/>
   <path class="fil0" d="M7230.89 2401.76c0,238.32 249.79,410.94 473.16,299.69 96.06,-47.85 377.97,-343.96 498.7,-450.28 19.28,-16.97 32.55,-32.35 51.1,-50.94 94.84,-94.99 271.38,-245.99 314.12,-328.74 157.03,-304.07 -212.29,-647.31 -513.73,-391.28 -17.47,14.84 -17.15,11.97 -34.62,26.6 -24.6,20.6 -43.76,42.83 -66.79,65.87l-199.1 188.65c-24.49,22.64 -42.26,42.51 -66.2,66.45l-260.21 250c-82.84,82.84 -196.43,165.41 -196.43,323.98z"/>
   <path class="fil0" d="M7220.69 7595.64c0,185.78 64.79,240.89 195.39,345.42 43.06,34.47 85.68,79.85 129.64,115.26l403.77 351.33c134.54,104.53 160.69,187.99 363.04,187.99 160.28,0 306.12,-145.85 306.12,-306.13 0,-247.84 -162.75,-301.14 -334.27,-461.65l-538.8 -471.4c-246.95,-168.48 -524.89,12.39 -524.89,239.18z"/>
   <path class="fil0" d="M1363.55 1728.29c0,217.11 160.26,296.6 328.98,446.53l474.67 413.08c328.25,307.22 594.31,-0.38 594.31,-155.53 0,-190.66 -37.3,-245.43 -199.77,-371.66 -92.05,-71.52 -299.33,-270.31 -397.96,-346.94 -48.27,-37.5 -90.11,-83.35 -135.45,-119.65 -142.74,-114.26 -164.41,-182.16 -358.66,-182.16 -163.25,0 -306.12,151.08 -306.12,316.33z"/>
   <path class="fil0" d="M8353.34 4973.19c0,98.99 25.24,153.13 75.41,220.51 104.54,140.4 310.68,116.9 455.27,116.15 95.52,-0.49 170.03,10.28 275.45,10.28 87.96,-0.01 189.27,-4.71 275.56,-0.05 162.34,8.76 332.63,48.33 467.08,-83.84 55.4,-54.45 85.45,-121.68 94.09,-190.42l0 -85.29c-17.2,-138.7 -116.82,-264.45 -266.32,-282.25 -44.05,-5.24 -95.18,2.56 -140.35,-2.5 -123.11,-13.81 -289.98,-9.32 -420,-8.58l-275.37 -10.34c-73.64,0 -217.47,-7.87 -282.01,3.7 -137.43,24.65 -258.81,155.04 -258.81,312.63z"/>
   <path class="fil0" d="M-3.8 4953.47c0.01,103 1.62,170.57 88.96,257.29 135.79,134.81 286.25,96.45 472.67,98.76 57.91,0.71 70.59,10.87 131.9,10.96 47.68,0.06 95.49,-0.35 143.2,-0.35 77.97,0 200.45,-7.12 272.73,2.78 68.4,9.38 203.17,14.21 271.31,0.44 70.5,-14.25 146.29,-57.75 182.34,-103.38 169.07,-214 50.56,-489.53 -170.58,-537.27 -46.69,-10.09 -88.54,-2.81 -137.47,-5.39l-418.34 -10.23c-171.35,0.39 -377.84,-24.59 -561.06,-10.06 -139.04,11.02 -275.65,143.96 -275.66,295.75l0 0.7z"/>
   <path class="fil0" d="M4659.47 381.35l0 1051.02c0,126.6 139.92,285.72 306.12,285.72 211.18,0 346.94,-132.11 346.94,-336.74l0 -969.38c0,-107.92 -33.82,-171.33 -84.51,-231.83 -55.54,-66.3 -133.73,-99.71 -214.38,-104.9l-45.22 0c-156.89,10.04 -308.95,123.21 -308.95,306.11z"/>
  </g>
 </g>
</svg>
